<svg width="158" height="109" viewBox="0 0 158 109" fill="none" xmlns="http://www.w3.org/2000/svg">
<g clip-path="url(#clip0_1_789)">
<path d="M80.9316 41C103.07 41 121.848 44.7105 134.972 51.0742C143.532 55.2253 149.426 60.3505 152.503 66.1357C148.485 63.2046 143.078 60.0489 136.461 57.1299C122.786 51.0979 103.795 46 80.9316 46C58.1211 46 38.3726 50.5763 23.834 56.3359C16.5692 59.214 10.5497 62.4096 6.07617 65.5215C5.97727 65.5903 5.87978 65.6607 5.78223 65.7295C9.18212 59.8156 15.6431 54.7125 24.8633 50.6377C38.9804 44.3988 58.7609 41 80.9316 41Z" stroke="#935EFF" stroke-width="6"/>
<path d="M80.9316 22C103.07 22 121.848 25.7105 134.972 32.0742C143.532 36.2253 149.426 41.3505 152.503 47.1357C148.485 44.2046 143.078 41.0489 136.461 38.1299C122.786 32.0979 103.795 27 80.9316 27C58.1211 27 38.3726 31.5763 23.834 37.3359C16.5692 40.214 10.5497 43.4096 6.07617 46.5215C5.97727 46.5903 5.87978 46.6607 5.78223 46.7295C9.18212 40.8156 15.6431 35.7125 24.8633 31.6377C38.9804 25.3988 58.7609 22 80.9316 22Z" stroke="#935EFF" stroke-width="6"/>
<path d="M80.9316 3C103.07 3 121.848 6.71055 134.972 13.0742C143.532 17.2253 149.426 22.3505 152.503 28.1357C148.485 25.2046 143.078 22.0489 136.461 19.1299C122.786 13.0979 103.795 8 80.9316 8C58.1211 8.00005 38.3726 12.5763 23.834 18.3359C16.5692 21.214 10.5497 24.4096 6.07617 27.5215C5.97727 27.5903 5.87978 27.6607 5.78223 27.7295C9.18212 21.8156 15.6431 16.7125 24.8633 12.6377C38.9804 6.39883 58.7609 3.00004 80.9316 3Z" stroke="#935EFF" stroke-width="6"/>
<path d="M79 60C100.472 60 119.859 63.9708 133.795 69.2734C140.776 71.9297 146.268 74.8751 149.954 77.7305C153.824 80.7282 155 83.0673 155 84.3955C155 85.6576 153.903 87.8216 150.057 90.5498C146.391 93.1498 140.91 95.7597 133.917 98.0791C119.964 102.707 100.538 106 79 106C57.4622 106 38.0358 102.707 24.083 98.0791C17.09 95.7597 11.6094 93.1498 7.94336 90.5498C4.09665 87.8216 3 85.6576 3 84.3955C3.00027 83.0673 4.17636 80.7282 8.0459 77.7305C11.7318 74.8751 17.2241 71.9297 24.2051 69.2734C38.1414 63.9708 57.5283 60 79 60Z" stroke="#935EFF" stroke-width="6"/>
<path d="M78.5 71C85.2005 71 91.2594 73.136 95.5957 75.9736C97.7636 77.3923 99.4268 78.9379 100.519 80.3926C101.637 81.8832 102 83.0618 102 83.8057C102 84.5137 101.666 85.5621 100.598 86.8652C99.5437 88.1508 97.9156 89.5021 95.752 90.7363C91.4283 93.2027 85.3188 95 78.5 95C71.6812 95 65.5717 93.2027 61.248 90.7363C59.0844 89.5021 57.4563 88.1508 56.4023 86.8652C55.334 85.5621 55.0001 84.5137 55 83.8057C55 83.0618 55.3627 81.8832 56.4814 80.3926C57.5732 78.9379 59.2364 77.3923 61.4043 75.9736C65.7406 73.136 71.7995 71 78.5 71Z" fill="white" stroke="white" stroke-width="6"/>
</g>
<defs>
<clipPath id="clip0_1_789">
<rect width="158" height="109" fill="white"/>
</clipPath>
</defs>
</svg>
