<svg width="58" height="30" viewBox="0 0 58 30" fill="none" xmlns="http://www.w3.org/2000/svg">
<path d="M26.5 3C33.2005 3 39.2594 5.13596 43.5957 7.97363C45.7636 9.39229 47.4268 10.9379 48.5186 12.3926C49.6373 13.8832 50 15.0618 50 15.8057C49.9999 16.5137 49.666 17.5621 48.5977 18.8652C47.5437 20.1508 45.9156 21.5021 43.752 22.7363C39.4283 25.2027 33.3188 27 26.5 27C19.6812 27 13.5717 25.2027 9.24805 22.7363C7.08441 21.5021 5.45628 20.1508 4.40234 18.8652C3.33404 17.5621 3.00009 16.5137 3 15.8057C3 15.0618 3.36274 13.8832 4.48145 12.3926C5.57322 10.9379 7.23643 9.39229 9.4043 7.97363C13.7406 5.13596 19.7995 3 26.5 3Z" fill="white" stroke="white" stroke-width="6"/>
<path d="M47.5645 7.76367L48.0938 9L47.5645 10.2363L47.5 10.3857L47.4355 10.2363L46.9053 9L47.4355 7.76367L47.5 7.61328L47.5645 7.76367Z" fill="white" stroke="#935EFF" stroke-width="6"/>
</svg>
